<?xml version="1.0" encoding="utf-8"?>
<?xml-stylesheet type="text/xsl" href="rss1.xsl"?>
<rss version="2.0" xmlns:atom="http://www.w3.org/2005/Atom" xmlns:content="http://purl.org/rss/1.0/modules/content/" xmlns:dc="http://purl.org/dc/elements/1.1/" xmlns:media="http://search.yahoo.com/mrss/">
<channel>
 <title>Getty</title>
 <link>http://www.gettyimg.com/</link>
 <atom:link href="http://www.gettyimg.com/" rel="self" type="application/rss+xml" />

 
                <item>
                <title><![CDATA[【Cinema Center】MOVIE - Ραλφ: Η Επομένη Πίστα (2012) (720p BRRip AC3 x264)]]></title>
                <link><![CDATA[https://sharemania.us/threads/%CE%A1%CE%B1%CE%BB%CF%86-%CE%97-%CE%95%CF%80%CE%BF%CE%BC%CE%AD%CE%BD%CE%B7-%CE%A0%CE%AF%CF%83%CF%84%CE%B1-2012-720p-brrip-ac3-x264.233701/]]></link>
                <description><![CDATA[<article>
<blockquote class="messageText SelectQuoteContainer ugc baseHtml">
<b>Release Name</b><br>
Wreck-It.Ralph.2012.720p.BRRip.AC3.x264.Greek-tomcat12<br>
<br>
<div class="bbCodeBlock bbCodeCode">
<div class="type">Code:</div>
<pre>General
Unique ID                                : 171896039279748319035578546750103238075 (0x8151F91266ED854A849C976785E835BB)
Complete name                            : Wreck-It.Ralph.2012.720p.BRRip.AC3.x264.Greek-tomcat12.mkv
Format                                   : Matroska
Format version                           : Version 4
File size                                : 1.73 GiB
Duration                                 : 1 h 41 min
Overall bit rate mode                    : Variable
Overall bit rate                         : 2 444 kb/s
Frame rate                               : 23.976 FPS
Movie name                               : Ραλφ: Η Επομένη Πίστα
Encoded date                             : 2013-03-02 02:14:12 UTC
Writing application                      : mkvmerge v5.0.0 ('Die Wahre Liebe') built on Sep 25 2011 20:33:49
Writing library                          : libebml v1.2.2 + libmatroska v1.3.0

Video
ID                                       : 1
Format                                   : AVC
Format/Info                              : Advanced Video Codec
Format profile                           : High@L4
Format settings                          : CABAC / 4 Ref Frames
Format settings, CABAC                   : Yes
Format settings, Reference frames        : 4 frames
Codec ID                                 : V_MPEG4/ISO/AVC
Duration                                 : 1 h 41 min
Bit rate mode                            : Variable
Bit rate                                 : 1 800 kb/s
Maximum bit rate                         : 40.0 Mb/s
Width                                    : 1 280 pixels
Height                                   : 534 pixels
Display aspect ratio                     : 2.40:1
Frame rate mode                          : Constant
Frame rate                               : 23.976 (24000/1001) FPS
Color space                              : YUV
Chroma subsampling                       : 4:2:0
Bit depth                                : 8 bits
Scan type                                : Progressive
Bits/(Pixel*Frame)                       : 0.110
Stream size                              : 1.24 GiB (72%)
Writing library                          : x264 core 129 r2245+729M 1a52e03
Encoding settings                        : cabac=1 / ref=4 / deblock=1:2:2 / analyse=0x3:0x133 / me=umh / subme=8 / psy=1 / fade_compensate=0.00 / psy_rd=1.00:0.00 / mixed_ref=1 / me_range=16 / chroma_me=1 / trellis=2 / 8x8dct=1 / cqm=0 / deadzone=21,11 / fast_pskip=1 / chroma_qp_offset=-2 / threads=6 / lookahead_threads=1 / sliced_threads=0 / nr=0 / decimate=1 / interlaced=0 / bluray_compat=0 / constrained_intra=0 / fgo=0 / bframes=3 / b_pyramid=0 / b_adapt=1 / b_bias=0 / direct=1 / weightb=1 / open_gop=0 / weightp=2 / keyint=240 / keyint_min=24 / scenecut=40 / intra_refresh=0 / rc_lookahead=40 / rc=2pass / mbtree=1 / bitrate=1800 / ratetol=1.0 / qcomp=0.60 / qpmin=0 / qpmax=69 / qpstep=4 / cplxblur=20.0 / qblur=0.5 / vbv_maxrate=20000 / vbv_bufsize=20000 / nal_hrd=none / ip_ratio=1.40 / aq=1:1.
Default                                  : Yes
Forced                                   : No

Audio
ID                                       : 2
Format                                   : AC-3
Format/Info                              : Audio Coding 3
Commercial name                          : Dolby Digital
Codec ID                                 : A_AC3
Duration                                 : 1 h 41 min
Bit rate mode                            : Constant
Bit rate                                 : 640 kb/s
Channel(s)                               : 6 channels
Channel layout                           : L R C LFE Ls Rs
Sampling rate                            : 48.0 kHz
Frame rate                               : 31.250 FPS (1536 SPF)
Compression mode                         : Lossy
Stream size                              : 463 MiB (26%)
Language                                 : Greek (GR)
Service kind                             : Complete Main
Default                                  : Yes
Forced                                   : No</pre>
</div>
<div class="bbCodeBlock bbCodeVfcHH HiddenContent">
<div class="attribution type">Hidden Content:</div>
<blockquote>You must reply before you can see the hidden data contained here.</blockquote>
</div>
<div class="messageTextEndMarker">&nbsp;</div>
</blockquote>
</article>]]></description>
                <author><![CDATA[Austin Zimmermann]]></author>
                </item>

                </channel></rss>